<svg viewBox="0 0 800 560" xmlns="http://www.w3.org/2000/svg" font-family="'Apple SD Gothic Neo','Malgun Gothic',sans-serif">
  <rect width="800" height="560" fill="#0b0c0e"/>
  <rect x="16" y="16" width="768" height="500" rx="10" fill="#17171c" stroke="#2a2b31"/>
  <circle cx="38" cy="38" r="5" fill="#e0708a"/>
  <circle cx="56" cy="38" r="5" fill="#d9a94a"/>
  <circle cx="74" cy="38" r="5" fill="#4caf7d"/>
  <rect x="100" y="28" width="500" height="20" rx="6" fill="#0f1013"/>
  <text x="112" y="42" fill="#7d838c" font-size="11">console.cloud.google.com/apis/library</text>

  <text x="190" y="90" fill="#ececef" font-size="20" font-weight="bold">API 라이브러리</text>
  <rect x="190" y="110" width="480" height="34" rx="6" fill="#0f1013" stroke="#4c8cff" stroke-width="2"/>
  <text x="202" y="132" fill="#c7cbd1" font-size="12">🔍 Google Calendar API</text>
  <circle cx="700" cy="127" r="14" fill="#4c8cff"/>
  <text x="695" y="132" fill="#fff" font-size="12" font-weight="bold">1</text>

  <rect x="190" y="180" width="480" height="70" rx="8" fill="#1d2024" stroke="#2a2b31"/>
  <text x="204" y="210" fill="#ececef" font-size="13" font-weight="bold">Google Calendar API</text>
  <text x="204" y="230" fill="#9ba1aa" font-size="11">캘린더 일정 만들기/읽기용 API</text>
  <rect x="560" y="196" width="90" height="32" rx="6" fill="#4c8cff"/>
  <text x="580" y="216" fill="#fff" font-size="12" font-weight="bold">사용</text>
  <circle cx="650" cy="192" r="14" fill="#4c8cff"/>
  <text x="645" y="197" fill="#fff" font-size="12" font-weight="bold">2</text>

  <text x="190" y="300" fill="#ececef" font-size="15" font-weight="bold">다음: OAuth 동의 화면</text>
  <text x="190" y="330" fill="#c7cbd1" font-size="12">좌측 메뉴 "OAuth 동의 화면" → User Type: External 선택 → 앱 이름/이메일 입력</text>
  <text x="190" y="352" fill="#c7cbd1" font-size="12">→ "테스트 사용자"에 본인 구글 계정 이메일 추가하면 충분합니다</text>

  <text x="16" y="545" fill="#8fb6ff" font-size="14" font-weight="bold">⑥ 구글 클라우드 — Calendar API 사용 설정 (🖥️ 컴퓨터 권장)</text>
</svg>
